#tb 0: 1/25
#media_type 0: video
#codec_id 0: rawvideo
#dimensions 0: 352x288
#sar 0: 0/1
0,          0,          0,        1,   102400, 0xa7e0c77a
0,          1,          1,        1,   102400, 0x2512e652
0,          2,          2,        1,   102400, 0x9261aa51
0,          3,          3,        1,   102400, 0x638ae5d5
0,          4,          4,        1,   102400, 0x0dc608c9
